<?xml version="1.0" encoding="utf-8"?>
<!-- Generator: Adobe Illustrator 28.0.0, SVG Export Plug-In . SVG Version: 6.00 Build 0)  -->
<svg version="1.1" id="Layer_1" xmlns="http://www.w3.org/2000/svg" xmlns:xlink="http://www.w3.org/1999/xlink" x="0px" y="0px"
	 viewBox="0 0 2048 2048" style="enable-background:new 0 0 2048 2048;" xml:space="preserve">
<style type="text/css">
	.st0{fill:none;}
	.st1{fill-rule:evenodd;clip-rule:evenodd;}
</style>
<rect class="st0" width="2048" height="2048"/>
<path class="st1" d="M581.1,293c-96.1,0.4-174.4,80.3-168.7,178.6c5.9,101.5,13.2,202.8,21.9,304.1c-90.5,49.5-165.5,91.8-213.2,119
	c-45.6,26-84.2,77.9-72.7,141.1c6.5,35.7,19,70.1,37.2,101.5c18.4,31.3,42,59.2,69.9,82.4c49.2,41.2,113.5,33.1,158.5,6.2
	c17.3-10.4,38.2-22.9,62.1-37.4c11.1,94.5,23.4,188.8,36.8,283c20.3,142.1,130.7,258.7,279,274.4c97.7,10.4,195.8,15.6,294,15.5
	c98.2-0.7,196.3-6.7,293.9-18c148.2-16.9,257.6-134.4,276.7-276.7c44.2-332.2,74.9-666,92-1000.7c4.8-98.3-74.2-177.6-170.2-177.2
	L581.1,293z M636.5,1089.7c13.3,119.4,28.4,238.6,45.3,357.6c10.1,70.3,63,121.9,128.1,128.8c91.4,9.8,183.3,14.6,275.2,14.6
	c92-0.7,183.9-6.3,275.2-16.9c65-7.4,117.5-59.5,126.9-129.9c43.5-326.8,73.7-655.2,90.6-984.5l-995.1,4.2
	c3.1,53.8,8,130.2,15.4,224c80.8-42.6,167-86.8,253.1-128.8c76.1-37.2,173.3-15.4,218.5,62.2c45.1,77.5,16.1,172.9-53.6,220.9
	C891.5,927.2,764.9,1009.8,636.5,1089.7"/>
</svg>
